<svg width="75" height="15" viewBox="0 0 75 15" fill="none" xmlns="http://www.w3.org/2000/svg">
<path opacity="0.5" d="M9.972 10.706H3.276L1.854 14H0.324L5.958 1.184H7.254L12.888 14H11.376L9.972 10.706ZM9.45 9.482L6.624 2.894L3.798 9.482H9.45ZM19.1408 4.73C19.9328 4.73 20.6348 4.922 21.2468 5.306C21.8588 5.69 22.3328 6.236 22.6688 6.944C23.0048 7.64 23.1728 8.456 23.1728 9.392C23.1728 10.328 23.0048 11.156 22.6688 11.876C22.3328 12.584 21.8588 13.136 21.2468 13.532C20.6348 13.928 19.9328 14.126 19.1408 14.126C18.4328 14.126 17.8148 13.97 17.2868 13.658C16.7588 13.346 16.3568 12.902 16.0808 12.326V14H14.6228V0.751999H16.0808V6.548C16.3448 5.96 16.7408 5.51 17.2688 5.198C17.8088 4.886 18.4328 4.73 19.1408 4.73ZM18.8708 12.92C19.7468 12.92 20.4308 12.614 20.9228 12.002C21.4148 11.378 21.6608 10.508 21.6608 9.392C21.6608 8.3 21.4148 7.454 20.9228 6.854C20.4428 6.254 19.7588 5.954 18.8708 5.954C17.9708 5.954 17.2808 6.254 16.8008 6.854C16.3208 7.454 16.0808 8.312 16.0808 9.428C16.0808 10.544 16.3208 11.408 16.8008 12.02C17.2808 12.62 17.9708 12.92 18.8708 12.92ZM29.1597 14.126C28.3077 14.126 27.5577 13.934 26.9097 13.55C26.2617 13.166 25.7577 12.62 25.3977 11.912C25.0497 11.204 24.8757 10.376 24.8757 9.428C24.8757 8.48 25.0497 7.652 25.3977 6.944C25.7577 6.236 26.2617 5.69 26.9097 5.306C27.5577 4.922 28.3077 4.73 29.1597 4.73C30.0117 4.73 30.7617 4.922 31.4097 5.306C32.0577 5.69 32.5557 6.236 32.9037 6.944C33.2637 7.652 33.4437 8.48 33.4437 9.428C33.4437 10.376 33.2637 11.204 32.9037 11.912C32.5557 12.62 32.0577 13.166 31.4097 13.55C30.7617 13.934 30.0117 14.126 29.1597 14.126ZM29.1597 12.92C30.0597 12.92 30.7497 12.626 31.2297 12.038C31.7097 11.438 31.9497 10.568 31.9497 9.428C31.9497 8.324 31.7037 7.472 31.2117 6.872C30.7197 6.26 30.0357 5.954 29.1597 5.954C28.2717 5.954 27.5817 6.26 27.0897 6.872C26.5977 7.472 26.3517 8.324 26.3517 9.428C26.3517 10.568 26.5917 11.438 27.0717 12.038C27.5637 12.626 28.2597 12.92 29.1597 12.92ZM43.2945 4.946V14H41.8725V12.434C41.5845 12.986 41.1825 13.406 40.6665 13.694C40.1505 13.982 39.5685 14.126 38.9205 14.126C37.8525 14.126 37.0425 13.826 36.4905 13.226C35.9385 12.626 35.6625 11.738 35.6625 10.562V4.946H37.1205V10.526C37.1205 11.342 37.2885 11.942 37.6245 12.326C37.9605 12.71 38.4705 12.902 39.1545 12.902C39.9585 12.902 40.6065 12.644 41.0985 12.128C41.5905 11.6 41.8365 10.91 41.8365 10.058V4.946H43.2945ZM48.0492 6.098V11.048C48.0492 11.72 48.1872 12.194 48.4632 12.47C48.7392 12.734 49.1292 12.866 49.6332 12.866C49.9692 12.866 50.2932 12.812 50.6052 12.704V13.946C50.2332 14.066 49.8132 14.126 49.3452 14.126C48.4812 14.126 47.8032 13.886 47.3112 13.406C46.8312 12.914 46.5912 12.194 46.5912 11.246V6.098H44.8272V4.946H46.5912V2.624L48.0492 2.102V4.946H50.6412V6.098H48.0492ZM64.6695 4.946V14H63.2475V12.434C62.9595 12.986 62.5575 13.406 62.0415 13.694C61.5255 13.982 60.9435 14.126 60.2955 14.126C59.2275 14.126 58.4175 13.826 57.8655 13.226C57.3135 12.626 57.0375 11.738 57.0375 10.562V4.946H58.4955V10.526C58.4955 11.342 58.6635 11.942 58.9995 12.326C59.3355 12.71 59.8455 12.902 60.5295 12.902C61.3335 12.902 61.9815 12.644 62.4735 12.128C62.9655 11.6 63.2115 10.91 63.2115 10.058V4.946H64.6695ZM70.5402 14.126C69.0162 14.126 67.8102 13.736 66.9222 12.956L67.4082 11.876C67.9002 12.26 68.3982 12.536 68.9022 12.704C69.4062 12.872 69.9702 12.956 70.5942 12.956C71.2782 12.956 71.7942 12.842 72.1422 12.614C72.5022 12.374 72.6822 12.032 72.6822 11.588C72.6822 11.228 72.5622 10.94 72.3222 10.724C72.0822 10.508 71.6862 10.34 71.1342 10.22L69.6042 9.86C68.8482 9.692 68.2602 9.392 67.8402 8.96C67.4322 8.528 67.2282 8.012 67.2282 7.412C67.2282 6.62 67.5462 5.978 68.1822 5.486C68.8182 4.982 69.6582 4.73 70.7022 4.73C71.3382 4.73 71.9382 4.832 72.5022 5.036C73.0662 5.24 73.5402 5.534 73.9242 5.918L73.4382 6.98C72.5862 6.272 71.6742 5.918 70.7022 5.918C70.0542 5.918 69.5502 6.044 69.1902 6.296C68.8422 6.536 68.6682 6.878 68.6682 7.322C68.6682 7.694 68.7762 7.988 68.9922 8.204C69.2202 8.42 69.5802 8.588 70.0722 8.708L71.6022 9.086C72.4422 9.278 73.0662 9.578 73.4742 9.986C73.8822 10.382 74.0862 10.904 74.0862 11.552C74.0862 12.332 73.7682 12.956 73.1322 13.424C72.4962 13.892 71.6322 14.126 70.5402 14.126Z" fill="#1F1534"/>
</svg>
