<svg width="43" height="17" viewBox="0 0 43 17" fill="none" xmlns="http://www.w3.org/2000/svg">
<path opacity="0.5" d="M1.854 13H0.324L5.958 0.184H7.254L12.888 13H11.376L6.354 1.264H6.894L1.854 13ZM2.718 9.706L3.24 8.482H9.972L10.494 9.706H2.718ZM14.6228 16.888V6.484C14.6228 6.064 14.6108 5.644 14.5868 5.224C14.5748 4.792 14.5388 4.366 14.4788 3.946H15.8647L16.0268 5.818L15.8828 6.088C16.0868 5.332 16.4768 4.75 17.0528 4.342C17.6288 3.934 18.3248 3.73 19.1408 3.73C19.9328 3.73 20.6288 3.928 21.2288 4.324C21.8408 4.72 22.3148 5.272 22.6508 5.98C22.9988 6.688 23.1728 7.516 23.1728 8.464C23.1728 9.412 22.9988 10.24 22.6508 10.948C22.3148 11.644 21.8468 12.184 21.2468 12.568C20.6468 12.94 19.9448 13.126 19.1408 13.126C18.3248 13.126 17.6288 12.922 17.0528 12.514C16.4768 12.106 16.0868 11.524 15.8828 10.768L16.0808 10.588V16.888H14.6228ZM18.8708 11.92C19.7468 11.92 20.4308 11.62 20.9228 11.02C21.4148 10.42 21.6608 9.568 21.6608 8.464C21.6608 7.36 21.4148 6.502 20.9228 5.89C20.4308 5.266 19.7468 4.954 18.8708 4.954C17.9708 4.954 17.2808 5.254 16.8008 5.854C16.3208 6.454 16.0808 7.312 16.0808 8.428C16.0808 9.544 16.3208 10.408 16.8008 11.02C17.2808 11.62 17.9708 11.92 18.8708 11.92ZM25.4157 16.888V6.484C25.4157 6.064 25.4037 5.644 25.3797 5.224C25.3677 4.792 25.3317 4.366 25.2717 3.946H26.6577L26.8197 5.818L26.6757 6.088C26.8797 5.332 27.2697 4.75 27.8457 4.342C28.4217 3.934 29.1177 3.73 29.9337 3.73C30.7257 3.73 31.4217 3.928 32.0217 4.324C32.6337 4.72 33.1077 5.272 33.4437 5.98C33.7917 6.688 33.9657 7.516 33.9657 8.464C33.9657 9.412 33.7917 10.24 33.4437 10.948C33.1077 11.644 32.6397 12.184 32.0397 12.568C31.4397 12.94 30.7377 13.126 29.9337 13.126C29.1177 13.126 28.4217 12.922 27.8457 12.514C27.2697 12.106 26.8797 11.524 26.6757 10.768L26.8737 10.588V16.888H25.4157ZM29.6637 11.92C30.5397 11.92 31.2237 11.62 31.7157 11.02C32.2077 10.42 32.4537 9.568 32.4537 8.464C32.4537 7.36 32.2077 6.502 31.7157 5.89C31.2237 5.266 30.5397 4.954 29.6637 4.954C28.7637 4.954 28.0737 5.254 27.5937 5.854C27.1137 6.454 26.8737 7.312 26.8737 8.428C26.8737 9.544 27.1137 10.408 27.5937 11.02C28.0737 11.62 28.7637 11.92 29.6637 11.92ZM39.2687 13.126C37.7447 13.126 36.5387 12.736 35.6507 11.956L36.1367 10.876C36.6167 11.248 37.1087 11.524 37.6127 11.704C38.1287 11.872 38.6987 11.956 39.3227 11.956C40.0067 11.956 40.5227 11.842 40.8707 11.614C41.2307 11.374 41.4107 11.032 41.4107 10.588C41.4107 10.228 41.2907 9.946 41.0507 9.742C40.8107 9.526 40.4147 9.352 39.8627 9.22L38.3327 8.86C37.5767 8.692 36.9887 8.392 36.5687 7.96C36.1607 7.528 35.9567 7.012 35.9567 6.412C35.9567 5.884 36.1007 5.422 36.3887 5.026C36.6767 4.618 37.0787 4.3 37.5947 4.072C38.1107 3.844 38.7227 3.73 39.4307 3.73C40.0667 3.73 40.6667 3.832 41.2307 4.036C41.7947 4.24 42.2687 4.534 42.6527 4.918L42.1667 5.98C41.7347 5.62 41.2907 5.356 40.8347 5.188C40.3907 5.008 39.9227 4.918 39.4307 4.918C38.7827 4.918 38.2787 5.044 37.9187 5.296C37.5707 5.548 37.3967 5.89 37.3967 6.322C37.3967 6.694 37.5047 6.988 37.7207 7.204C37.9487 7.42 38.3087 7.588 38.8007 7.708L40.3307 8.086C41.1827 8.266 41.8067 8.566 42.2027 8.986C42.6107 9.394 42.8147 9.916 42.8147 10.552C42.8147 11.332 42.4967 11.956 41.8607 12.424C41.2247 12.892 40.3607 13.126 39.2687 13.126Z" fill="#1F1534"/>
</svg>
