<svg width="108" height="15" viewBox="0 0 108 15" fill="none" xmlns="http://www.w3.org/2000/svg">
<path opacity="0.5" d="M0.584 1.184H8.504V2.426H2.042V6.872H8.144V8.114H2.042V14H0.584V1.184ZM10.5466 4.946H12.0046V14H10.5466V4.946ZM12.1846 1.112V2.768H10.4026V1.112H12.1846ZM19.3536 4.73C21.5256 4.73 22.6116 5.924 22.6116 8.312V14H21.1536V8.384C21.1536 7.544 20.9856 6.932 20.6496 6.548C20.3136 6.152 19.7856 5.954 19.0656 5.954C18.2256 5.954 17.5536 6.212 17.0496 6.728C16.5456 7.244 16.2936 7.94 16.2936 8.816V14H14.8356V7.484C14.8356 6.548 14.7876 5.702 14.6916 4.946H16.0776L16.2216 6.566C16.4976 5.978 16.9116 5.528 17.4636 5.216C18.0156 4.892 18.6456 4.73 19.3536 4.73ZM33.3389 0.751999V14H31.8989V12.362C31.6349 12.926 31.2329 13.364 30.6929 13.676C30.1649 13.976 29.5469 14.126 28.8389 14.126C28.0469 14.126 27.3449 13.928 26.7329 13.532C26.1329 13.136 25.6649 12.584 25.3289 11.876C24.9929 11.156 24.8249 10.328 24.8249 9.392C24.8249 8.456 24.9869 7.64 25.3109 6.944C25.6469 6.236 26.1209 5.69 26.7329 5.306C27.3449 4.922 28.0469 4.73 28.8389 4.73C29.5469 4.73 30.1649 4.886 30.6929 5.198C31.2209 5.498 31.6169 5.924 31.8809 6.476V0.751999H33.3389ZM29.1269 12.92C30.0149 12.92 30.6989 12.62 31.1789 12.02C31.6589 11.408 31.8989 10.544 31.8989 9.428C31.8989 8.324 31.6589 7.472 31.1789 6.872C30.6989 6.26 30.0149 5.954 29.1269 5.954C28.2389 5.954 27.5429 6.254 27.0389 6.854C26.5469 7.454 26.3009 8.3 26.3009 9.392C26.3009 10.508 26.5469 11.378 27.0389 12.002C27.5429 12.614 28.2389 12.92 29.1269 12.92ZM48.8253 4.946V14H47.3853V12.362C47.1213 12.926 46.7193 13.364 46.1793 13.676C45.6513 13.976 45.0333 14.126 44.3253 14.126C43.5213 14.126 42.8133 13.934 42.2013 13.55C41.6013 13.166 41.1333 12.626 40.7973 11.93C40.4733 11.222 40.3113 10.4 40.3113 9.464C40.3113 8.528 40.4793 7.706 40.8153 6.998C41.1513 6.278 41.6193 5.72 42.2193 5.324C42.8313 4.928 43.5333 4.73 44.3253 4.73C45.0333 4.73 45.6513 4.886 46.1793 5.198C46.7073 5.51 47.1093 5.948 47.3853 6.512V4.946H48.8253ZM44.6133 12.92C45.5013 12.92 46.1853 12.62 46.6653 12.02C47.1453 11.408 47.3853 10.544 47.3853 9.428C47.3853 8.312 47.1453 7.454 46.6653 6.854C46.1853 6.254 45.5013 5.954 44.6133 5.954C43.7253 5.954 43.0293 6.266 42.5253 6.89C42.0333 7.502 41.7873 8.36 41.7873 9.464C41.7873 10.568 42.0333 11.42 42.5253 12.02C43.0173 12.62 43.7133 12.92 44.6133 12.92ZM64.3116 0.751999V14H62.8716V12.362C62.6076 12.926 62.2056 13.364 61.6656 13.676C61.1376 13.976 60.5196 14.126 59.8116 14.126C59.0196 14.126 58.3176 13.928 57.7056 13.532C57.1056 13.136 56.6376 12.584 56.3016 11.876C55.9656 11.156 55.7976 10.328 55.7976 9.392C55.7976 8.456 55.9596 7.64 56.2836 6.944C56.6196 6.236 57.0936 5.69 57.7056 5.306C58.3176 4.922 59.0196 4.73 59.8116 4.73C60.5196 4.73 61.1376 4.886 61.6656 5.198C62.1936 5.498 62.5896 5.924 62.8536 6.476V0.751999H64.3116ZM60.0996 12.92C60.9876 12.92 61.6716 12.62 62.1516 12.02C62.6316 11.408 62.8716 10.544 62.8716 9.428C62.8716 8.324 62.6316 7.472 62.1516 6.872C61.6716 6.26 60.9876 5.954 60.0996 5.954C59.2116 5.954 58.5156 6.254 58.0116 6.854C57.5196 7.454 57.2736 8.3 57.2736 9.392C57.2736 10.508 57.5196 11.378 58.0116 12.002C58.5156 12.614 59.2116 12.92 60.0996 12.92ZM70.8746 14.126C70.0226 14.126 69.2726 13.934 68.6246 13.55C67.9766 13.166 67.4726 12.62 67.1126 11.912C66.7646 11.204 66.5906 10.376 66.5906 9.428C66.5906 8.48 66.7646 7.652 67.1126 6.944C67.4726 6.236 67.9766 5.69 68.6246 5.306C69.2726 4.922 70.0226 4.73 70.8746 4.73C71.7266 4.73 72.4766 4.922 73.1246 5.306C73.7726 5.69 74.2706 6.236 74.6186 6.944C74.9786 7.652 75.1586 8.48 75.1586 9.428C75.1586 10.376 74.9786 11.204 74.6186 11.912C74.2706 12.62 73.7726 13.166 73.1246 13.55C72.4766 13.934 71.7266 14.126 70.8746 14.126ZM70.8746 12.92C71.7746 12.92 72.4646 12.626 72.9446 12.038C73.4246 11.438 73.6646 10.568 73.6646 9.428C73.6646 8.324 73.4186 7.472 72.9266 6.872C72.4346 6.26 71.7506 5.954 70.8746 5.954C69.9866 5.954 69.2966 6.26 68.8046 6.872C68.3126 7.472 68.0666 8.324 68.0666 9.428C68.0666 10.568 68.3066 11.438 68.7866 12.038C69.2786 12.626 69.9746 12.92 70.8746 12.92ZM81.2293 14.126C80.3533 14.126 79.5853 13.934 78.9253 13.55C78.2773 13.166 77.7733 12.626 77.4133 11.93C77.0653 11.222 76.8913 10.4 76.8913 9.464C76.8913 8.528 77.0713 7.706 77.4313 6.998C77.7913 6.278 78.3013 5.72 78.9613 5.324C79.6333 4.928 80.4133 4.73 81.3013 4.73C81.9133 4.73 82.5013 4.838 83.0653 5.054C83.6413 5.258 84.1153 5.546 84.4873 5.918L84.0013 6.998C83.5453 6.638 83.1013 6.374 82.6693 6.206C82.2493 6.038 81.8173 5.954 81.3733 5.954C80.4493 5.954 79.7233 6.266 79.1953 6.89C78.6673 7.502 78.4033 8.36 78.4033 9.464C78.4033 10.556 78.6613 11.408 79.1773 12.02C79.7053 12.62 80.4373 12.92 81.3733 12.92C81.8173 12.92 82.2493 12.836 82.6693 12.668C83.1013 12.5 83.5453 12.236 84.0013 11.876L84.4873 12.956C84.1033 13.316 83.6173 13.604 83.0293 13.82C82.4533 14.024 81.8533 14.126 81.2293 14.126ZM88.305 6.098V11.048C88.305 11.72 88.443 12.194 88.719 12.47C88.995 12.734 89.385 12.866 89.889 12.866C90.225 12.866 90.549 12.812 90.861 12.704V13.946C90.489 14.066 90.069 14.126 89.601 14.126C88.737 14.126 88.059 13.886 87.567 13.406C87.087 12.914 86.847 12.194 86.847 11.246V6.098H85.083V4.946H86.847V2.624L88.305 2.102V4.946H90.897V6.098H88.305ZM96.398 14.126C95.546 14.126 94.796 13.934 94.148 13.55C93.5 13.166 92.996 12.62 92.636 11.912C92.288 11.204 92.114 10.376 92.114 9.428C92.114 8.48 92.288 7.652 92.636 6.944C92.996 6.236 93.5 5.69 94.148 5.306C94.796 4.922 95.546 4.73 96.398 4.73C97.25 4.73 98 4.922 98.648 5.306C99.296 5.69 99.794 6.236 100.142 6.944C100.502 7.652 100.682 8.48 100.682 9.428C100.682 10.376 100.502 11.204 100.142 11.912C99.794 12.62 99.296 13.166 98.648 13.55C98 13.934 97.25 14.126 96.398 14.126ZM96.398 12.92C97.298 12.92 97.988 12.626 98.468 12.038C98.948 11.438 99.188 10.568 99.188 9.428C99.188 8.324 98.942 7.472 98.45 6.872C97.958 6.26 97.274 5.954 96.398 5.954C95.51 5.954 94.82 6.26 94.328 6.872C93.836 7.472 93.59 8.324 93.59 9.428C93.59 10.568 93.83 11.438 94.31 12.038C94.802 12.626 95.498 12.92 96.398 12.92ZM107.167 4.73C107.467 4.73 107.743 4.766 107.995 4.838L107.959 6.17C107.683 6.074 107.365 6.026 107.005 6.026C106.129 6.026 105.475 6.302 105.043 6.854C104.623 7.394 104.413 8.054 104.413 8.834V14H102.955V7.484C102.955 6.548 102.907 5.702 102.811 4.946H104.197L104.341 6.62C104.569 6.008 104.935 5.54 105.439 5.216C105.943 4.892 106.519 4.73 107.167 4.73Z" fill="#1F1534"/>
</svg>
