<svg width="49" height="14" viewBox="0 0 49 14" fill="none" xmlns="http://www.w3.org/2000/svg">
<path d="M11.546 0.184V13H9.242V7.438H2.672V13H0.386V0.184H2.672V5.548H9.242V0.184H11.546ZM18.2855 13.144C17.3615 13.144 16.5455 12.952 15.8375 12.568C15.1415 12.184 14.6015 11.638 14.2175 10.93C13.8455 10.21 13.6595 9.37 13.6595 8.41C13.6595 7.45 13.8455 6.616 14.2175 5.908C14.6015 5.188 15.1415 4.636 15.8375 4.252C16.5455 3.868 17.3615 3.676 18.2855 3.676C19.1975 3.676 20.0015 3.868 20.6975 4.252C21.3935 4.636 21.9275 5.188 22.2995 5.908C22.6835 6.616 22.8755 7.45 22.8755 8.41C22.8755 9.37 22.6835 10.21 22.2995 10.93C21.9275 11.638 21.3935 12.184 20.6975 12.568C20.0015 12.952 19.1975 13.144 18.2855 13.144ZM18.2675 11.38C19.0355 11.38 19.6175 11.134 20.0135 10.642C20.4215 10.138 20.6255 9.394 20.6255 8.41C20.6255 7.438 20.4215 6.7 20.0135 6.196C19.6055 5.68 19.0295 5.422 18.2855 5.422C17.5295 5.422 16.9475 5.68 16.5395 6.196C16.1315 6.7 15.9275 7.438 15.9275 8.41C15.9275 9.394 16.1255 10.138 16.5215 10.642C16.9295 11.134 17.5115 11.38 18.2675 11.38ZM35.5438 3.676C36.5758 3.676 37.3438 3.988 37.8478 4.612C38.3518 5.224 38.6038 6.16 38.6038 7.42V13H36.3538V7.492C36.3538 6.772 36.2338 6.256 35.9938 5.944C35.7658 5.62 35.3818 5.458 34.8418 5.458C34.2178 5.458 33.7258 5.68 33.3658 6.124C33.0178 6.556 32.8438 7.156 32.8438 7.924V13H30.5938V7.492C30.5938 6.784 30.4678 6.268 30.2158 5.944C29.9758 5.62 29.5918 5.458 29.0638 5.458C28.4398 5.458 27.9478 5.68 27.5878 6.124C27.2278 6.556 27.0478 7.156 27.0478 7.924V13H24.8158V6.484C24.8158 5.524 24.7678 4.666 24.6718 3.91H26.7778L26.9398 5.35C27.2038 4.81 27.5818 4.396 28.0738 4.108C28.5778 3.82 29.1538 3.676 29.8018 3.676C31.1938 3.676 32.0998 4.252 32.5198 5.404C32.8078 4.864 33.2158 4.444 33.7438 4.144C34.2838 3.832 34.8838 3.676 35.5438 3.676ZM48.9613 8.572H42.6973C42.7453 9.544 42.9853 10.264 43.4173 10.732C43.8613 11.188 44.5153 11.416 45.3793 11.416C46.3753 11.416 47.2993 11.092 48.1513 10.444L48.7993 11.992C48.3673 12.34 47.8333 12.622 47.1973 12.838C46.5733 13.042 45.9373 13.144 45.2893 13.144C43.8013 13.144 42.6313 12.724 41.7793 11.884C40.9273 11.044 40.5013 9.892 40.5013 8.428C40.5013 7.504 40.6873 6.682 41.0593 5.962C41.4313 5.242 41.9533 4.684 42.6253 4.288C43.2973 3.88 44.0593 3.676 44.9113 3.676C46.1593 3.676 47.1433 4.084 47.8633 4.9C48.5953 5.704 48.9613 6.814 48.9613 8.23V8.572ZM44.9653 5.296C44.3653 5.296 43.8733 5.476 43.4893 5.836C43.1173 6.184 42.8773 6.694 42.7693 7.366H46.9993C46.9273 6.682 46.7173 6.166 46.3693 5.818C46.0333 5.47 45.5653 5.296 44.9653 5.296Z" fill="#1F1534"/>
</svg>
