<svg width="103" height="15" viewBox="0 0 103 15" fill="none" xmlns="http://www.w3.org/2000/svg">
<path opacity="0.5" d="M4.68 14V2.444H0.216V1.184H10.638V2.444H6.174V14H4.68ZM18.277 12.92C17.881 13.292 17.371 13.586 16.747 13.802C16.135 14.018 15.505 14.126 14.857 14.126C13.921 14.126 13.111 13.94 12.427 13.568C11.755 13.196 11.233 12.662 10.861 11.966C10.501 11.258 10.321 10.418 10.321 9.446C10.321 8.51 10.501 7.688 10.861 6.98C11.221 6.272 11.719 5.72 12.355 5.324C13.003 4.928 13.747 4.73 14.587 4.73C15.391 4.73 16.081 4.91 16.657 5.27C17.233 5.618 17.671 6.122 17.971 6.782C18.283 7.442 18.439 8.234 18.439 9.158V9.428H11.599V8.474H17.611L17.143 9.14C17.167 8.084 16.957 7.274 16.513 6.71C16.081 6.146 15.445 5.864 14.605 5.864C13.729 5.864 13.039 6.176 12.535 6.8C12.043 7.412 11.797 8.264 11.797 9.356C11.797 10.532 12.055 11.42 12.571 12.02C13.099 12.62 13.867 12.92 14.875 12.92C15.403 12.92 15.907 12.836 16.387 12.668C16.879 12.488 17.347 12.218 17.791 11.858L18.277 12.92ZM23.712 14.126C22.188 14.126 20.982 13.736 20.094 12.956L20.58 11.876C21.06 12.248 21.552 12.524 22.056 12.704C22.572 12.872 23.142 12.956 23.766 12.956C24.45 12.956 24.966 12.842 25.314 12.614C25.674 12.374 25.854 12.032 25.854 11.588C25.854 11.228 25.734 10.946 25.494 10.742C25.254 10.526 24.858 10.352 24.306 10.22L22.776 9.86C22.02 9.692 21.432 9.392 21.012 8.96C20.604 8.528 20.4 8.012 20.4 7.412C20.4 6.884 20.544 6.422 20.832 6.026C21.12 5.618 21.522 5.3 22.038 5.072C22.554 4.844 23.166 4.73 23.874 4.73C24.51 4.73 25.11 4.832 25.674 5.036C26.238 5.24 26.712 5.534 27.096 5.918L26.61 6.98C26.178 6.62 25.734 6.356 25.278 6.188C24.834 6.008 24.366 5.918 23.874 5.918C23.226 5.918 22.722 6.044 22.362 6.296C22.014 6.548 21.84 6.89 21.84 7.322C21.84 7.694 21.948 7.988 22.164 8.204C22.392 8.42 22.752 8.588 23.244 8.708L24.774 9.086C25.626 9.266 26.25 9.566 26.646 9.986C27.054 10.394 27.258 10.916 27.258 11.552C27.258 12.332 26.94 12.956 26.304 13.424C25.668 13.892 24.804 14.126 23.712 14.126ZM28.2158 6.098V4.946H34.0298V6.098H28.2158ZM33.9938 12.704V13.946C33.7898 14.006 33.5858 14.048 33.3818 14.072C33.1898 14.108 32.9738 14.126 32.7338 14.126C31.8938 14.126 31.2218 13.886 30.7178 13.406C30.2258 12.926 29.9798 12.206 29.9798 11.246V2.624L31.4378 2.102V11.048C31.4378 11.528 31.5038 11.9 31.6358 12.164C31.7798 12.428 31.9718 12.614 32.2118 12.722C32.4518 12.818 32.7218 12.866 33.0218 12.866C33.2018 12.866 33.3638 12.854 33.5078 12.83C33.6518 12.806 33.8138 12.764 33.9938 12.704ZM35.7868 14V4.946H37.2448V14H35.7868ZM35.6428 1.112H37.4248V2.768H35.6428V1.112ZM40.0759 14V7.484C40.0759 7.064 40.0639 6.644 40.0399 6.224C40.0279 5.792 39.9919 5.366 39.9319 4.946H41.3179L41.4799 6.818L41.2999 6.944C41.5159 6.236 41.8879 5.69 42.4159 5.306C42.9559 4.922 43.5919 4.73 44.3239 4.73C45.1999 4.73 45.8779 4.946 46.3579 5.378C46.8499 5.81 47.1619 6.47 47.2939 7.358L46.8619 7.124C47.0539 6.392 47.4379 5.81 48.0139 5.378C48.6019 4.946 49.3039 4.73 50.1199 4.73C51.1159 4.73 51.8659 5.03 52.3699 5.63C52.8739 6.218 53.1259 7.112 53.1259 8.312V14H51.6679V8.384C51.6679 7.544 51.5179 6.932 51.2179 6.548C50.9179 6.152 50.4439 5.954 49.7959 5.954C49.0399 5.954 48.4399 6.212 47.9959 6.728C47.5639 7.244 47.3479 7.946 47.3479 8.834V14H45.8899V8.384C45.8899 7.544 45.7339 6.932 45.4219 6.548C45.1219 6.152 44.6479 5.954 43.9999 5.954C43.2319 5.954 42.6259 6.212 42.1819 6.728C41.7499 7.244 41.5339 7.946 41.5339 8.834V14H40.0759ZM59.6402 14.126C58.7762 14.126 58.0202 13.934 57.3722 13.55C56.7362 13.166 56.2382 12.626 55.8782 11.93C55.5302 11.222 55.3562 10.388 55.3562 9.428C55.3562 8.48 55.5302 7.652 55.8782 6.944C56.2382 6.236 56.7362 5.69 57.3722 5.306C58.0202 4.922 58.7762 4.73 59.6402 4.73C60.5042 4.73 61.2542 4.922 61.8902 5.306C62.5382 5.69 63.0362 6.236 63.3842 6.944C63.7442 7.652 63.9242 8.48 63.9242 9.428C63.9242 10.388 63.7442 11.222 63.3842 11.93C63.0362 12.626 62.5382 13.166 61.8902 13.55C61.2542 13.934 60.5042 14.126 59.6402 14.126ZM59.6402 12.92C60.5282 12.92 61.2122 12.626 61.6922 12.038C62.1842 11.438 62.4302 10.568 62.4302 9.428C62.4302 8.312 62.1842 7.454 61.6922 6.854C61.2002 6.254 60.5162 5.954 59.6402 5.954C58.7642 5.954 58.0742 6.254 57.5702 6.854C57.0782 7.454 56.8322 8.312 56.8322 9.428C56.8322 10.568 57.0722 11.438 57.5522 12.038C58.0442 12.626 58.7402 12.92 59.6402 12.92ZM66.197 14V7.484C66.197 7.064 66.185 6.644 66.161 6.224C66.149 5.792 66.113 5.366 66.053 4.946H67.439L67.601 6.818L67.421 6.962C67.673 6.23 68.093 5.678 68.681 5.306C69.269 4.922 69.947 4.73 70.715 4.73C72.887 4.73 73.973 5.924 73.973 8.312V14H72.515V8.384C72.515 7.544 72.347 6.932 72.011 6.548C71.675 6.152 71.147 5.954 70.427 5.954C69.587 5.954 68.915 6.212 68.411 6.728C67.907 7.244 67.655 7.94 67.655 8.816V14H66.197ZM76.7263 14V4.946H78.1843V14H76.7263ZM76.5823 1.112H78.3643V2.768H76.5823V1.112ZM84.4893 14.126C83.6853 14.126 82.9773 13.94 82.3653 13.568C81.7653 13.184 81.2973 12.644 80.9613 11.948C80.6373 11.24 80.4753 10.412 80.4753 9.464C80.4753 8.516 80.6433 7.688 80.9793 6.98C81.3153 6.272 81.7833 5.72 82.3833 5.324C82.9953 4.928 83.6973 4.73 84.4893 4.73C85.3173 4.73 86.0193 4.934 86.5953 5.342C87.1713 5.75 87.5613 6.332 87.7653 7.088L87.5493 7.232V4.946H88.9893V14H87.5493V11.66L87.7653 11.768C87.5613 12.524 87.1713 13.106 86.5953 13.514C86.0193 13.922 85.3173 14.126 84.4893 14.126ZM84.7773 12.92C85.6653 12.92 86.3493 12.62 86.8293 12.02C87.3093 11.408 87.5493 10.544 87.5493 9.428C87.5493 8.312 87.3033 7.454 86.8113 6.854C86.3313 6.254 85.6533 5.954 84.7773 5.954C83.8893 5.954 83.1933 6.266 82.6893 6.89C82.1973 7.502 81.9513 8.36 81.9513 9.464C81.9513 10.568 82.1973 11.42 82.6893 12.02C83.1933 12.62 83.8893 12.92 84.7773 12.92ZM91.8083 14V0.751999H93.2663V14H91.8083ZM99.1574 14.126C97.6334 14.126 96.4274 13.736 95.5394 12.956L96.0254 11.876C96.5054 12.248 96.9974 12.524 97.5014 12.704C98.0174 12.872 98.5874 12.956 99.2114 12.956C99.8954 12.956 100.411 12.842 100.759 12.614C101.119 12.374 101.299 12.032 101.299 11.588C101.299 11.228 101.179 10.946 100.939 10.742C100.699 10.526 100.303 10.352 99.7514 10.22L98.2214 9.86C97.4654 9.692 96.8774 9.392 96.4574 8.96C96.0494 8.528 95.8454 8.012 95.8454 7.412C95.8454 6.884 95.9894 6.422 96.2774 6.026C96.5654 5.618 96.9674 5.3 97.4834 5.072C97.9994 4.844 98.6114 4.73 99.3194 4.73C99.9554 4.73 100.555 4.832 101.119 5.036C101.683 5.24 102.157 5.534 102.541 5.918L102.055 6.98C101.623 6.62 101.179 6.356 100.723 6.188C100.279 6.008 99.8114 5.918 99.3194 5.918C98.6714 5.918 98.1674 6.044 97.8074 6.296C97.4594 6.548 97.2854 6.89 97.2854 7.322C97.2854 7.694 97.3934 7.988 97.6094 8.204C97.8374 8.42 98.1974 8.588 98.6894 8.708L100.219 9.086C101.071 9.266 101.695 9.566 102.091 9.986C102.499 10.394 102.703 10.916 102.703 11.552C102.703 12.332 102.385 12.956 101.749 13.424C101.113 13.892 100.249 14.126 99.1574 14.126Z" fill="#1F1534"/>
</svg>
